<?xml version="1.0" encoding="iso-8859-1"?>
<!-- Generator: Adobe Illustrator 19.0.0, SVG Export Plug-In . SVG Version: 6.00 Build 0)  -->
<svg version="1.1" id="Capa_1" xmlns="http://www.w3.org/2000/svg" xmlns:xlink="http://www.w3.org/1999/xlink" x="0px" y="0px"
	 viewBox="0 0 512.001 512.001" style="enable-background:new 0 0 512.001 512.001;" xml:space="preserve" fill="#fff">
<g>
	<g>
		<path d="M420,221.904h-54.637l-37.44-34.588c-3.19-2.946-7.824-3.726-11.8-1.984c-3.979,1.741-6.549,5.672-6.549,10.014v57.852
			l-28.139-28.139c-2.065-2.065-4.811-3.202-7.729-3.202h-35.261l-34.192-33.885c-3.144-3.116-7.814-4.028-11.901-2.325
			c-4.085,1.703-6.725,5.664-6.725,10.089v57.367l-28.991-28.991c-2.064-2.064-4.81-3.202-7.729-3.202H92
			c-4.142,0-7.5,3.358-7.5,7.5c0,4.142,3.358,7.501,7.5,7.501h55.222l34.745,34.745c3.138,3.138,7.815,4.067,11.913,2.369
			c4.099-1.698,6.748-5.662,6.748-10.099v-57.428l28.447,28.191c2.061,2.043,4.793,3.168,7.696,3.168h35.25l33.894,33.893
			c2.097,2.096,4.879,3.207,7.718,3.207c1.411,0,2.835-0.274,4.195-0.838c4.1-1.698,6.748-5.662,6.748-10.099v-58.376l31.78,29.359
			c2.025,1.871,4.659,2.901,7.417,2.901H420c4.143,0,7.5-3.358,7.5-7.5C427.5,225.262,424.143,221.904,420,221.904z"/>
	</g>
</g>
<g>
	<g>
		<path d="M299.917,387.717H167c-4.142,0-7.5,3.358-7.5,7.5c0,4.142,3.358,7.5,7.5,7.5h132.917c4.143,0,7.5-3.358,7.5-7.5
			C307.417,391.076,304.06,387.717,299.917,387.717z"/>
	</g>
</g>
<g>
	<g>
		<path d="M354.333,387.717h-19.416c-4.143,0-7.5,3.358-7.5,7.5c0,4.142,3.357,7.5,7.5,7.5h19.416c4.143,0,7.5-3.358,7.5-7.5
			C361.833,391.076,358.476,387.717,354.333,387.717z"/>
	</g>
</g>
<g>
	<g>
		<path d="M490.158,37.039H21.842C9.798,37.039,0,46.837,0,58.881v360.497c0,12.043,9.798,21.842,21.842,21.842h23.542v18.278
			c0,8.527,6.938,15.465,15.465,15.465h27.404c8.527,0,15.465-6.938,15.465-15.465V441.22h304.566v18.278
			c0,8.527,6.938,15.465,15.465,15.465h27.403c8.527,0,15.465-6.938,15.465-15.465V441.22h23.542
			c12.044,0,21.842-9.798,21.842-21.842V58.881C512,46.837,502.202,37.039,490.158,37.039z M88.717,459.498
			c0,0.256-0.208,0.465-0.465,0.465H60.849c-0.256,0-0.465-0.208-0.465-0.465V441.22h28.333V459.498z M451.616,459.498
			c0,0.256-0.209,0.465-0.465,0.465h-27.403c-0.256,0-0.465-0.208-0.465-0.465V441.22h28.333V459.498z M497,419.378L497,419.378
			c0,3.772-3.069,6.842-6.842,6.842H21.842c-3.772,0-6.842-3.069-6.842-6.842V58.881c0-3.772,3.069-6.842,6.842-6.842h468.316
			c3.772,0,6.842,3.069,6.842,6.842V419.378z"/>
	</g>
</g>
<g>
	<g>
		<path d="M466.867,70.582H110.833c-4.142,0-7.5,3.358-7.5,7.5c0,4.142,3.358,7.5,7.5,7.5h352.623v262.91H48.544V85.582h27.289
			c4.142,0,7.5-3.358,7.5-7.5c0-4.142-3.358-7.5-7.5-7.5h-30.7c-6.39,0-11.588,5.199-11.588,11.589v269.732
			c0,6.39,5.199,11.589,11.588,11.589h421.734c6.39,0,11.589-5.199,11.589-11.589V82.172
			C478.456,75.782,473.257,70.582,466.867,70.582z"/>
	</g>
</g>
<g>
	<g>
		<path d="M440.057,124.46c-1.403-9.768-7.791-17.271-17.087-20.071c-11.597-3.494-20.164,0.799-25.646,5.181
			c-5.481-4.382-14.051-8.674-25.646-5.181c-9.296,2.8-15.684,10.303-17.087,20.071c-1.778,12.381,4.484,30.936,27.395,45.88
			c3.438,2.242,8.613,5.215,10.823,6.485l0.48,0.275c1.138,0.655,2.428,1,3.74,1h0.59c1.313,0,2.603-0.345,3.74-1l0.48-0.275
			c2.21-1.27,7.386-4.243,10.823-6.485C435.573,155.397,441.835,136.842,440.057,124.46z M404.467,157.777
			c-2.027,1.323-4.852,2.999-7.144,4.333c-2.292-1.335-5.116-3.011-7.144-4.333c-17.02-11.102-21.81-23.737-20.74-31.183
			c0.401-2.796,1.866-6.427,6.565-7.842c1.419-0.427,2.729-0.621,3.948-0.621c4.992,0,8.487,3.234,11.874,6.885
			c1.419,1.53,3.411,2.399,5.498,2.399s4.079-0.869,5.498-2.399c4.216-4.543,8.597-8.441,15.822-6.265
			c4.698,1.416,6.164,5.046,6.565,7.842C426.278,134.039,421.488,146.675,404.467,157.777z"/>
	</g>
</g>
<g>
	<g>
		<path d="M446.715,372.569c-12.489,0-22.649,10.16-22.649,22.649c0,12.489,10.16,22.649,22.649,22.649
			c12.488,0,22.648-10.16,22.648-22.649C469.363,382.728,459.203,372.569,446.715,372.569z M446.715,402.866
			c-4.218,0-7.649-3.431-7.649-7.649c0-4.218,3.432-7.649,7.649-7.649s7.648,3.431,7.648,7.649
			C454.363,399.436,450.933,402.866,446.715,402.866z"/>
	</g>
</g>
<g>
</g>
<g>
</g>
<g>
</g>
<g>
</g>
<g>
</g>
<g>
</g>
<g>
</g>
<g>
</g>
<g>
</g>
<g>
</g>
<g>
</g>
<g>
</g>
<g>
</g>
<g>
</g>
<g>
</g>
</svg>
